<svg width="171" height="61" viewBox="0 0 171 61" fill="none" xmlns="http://www.w3.org/2000/svg">
<path d="M80.08 22.18L79.76 24.32H74.26V36H71.62V22.18H80.08ZM85.8758 22.18C87.6491 22.18 89.0224 22.5467 89.9958 23.28C90.9824 24.0133 91.4758 25.1133 91.4758 26.58C91.4758 28.1133 90.9824 29.2667 89.9958 30.04C89.0091 30.8 87.6958 31.18 86.0558 31.18H84.4358V36H81.7958V22.18H85.8758ZM85.8558 29.2C86.8024 29.2 87.5158 29.0067 87.9958 28.62C88.4758 28.22 88.7158 27.54 88.7158 26.58C88.7158 24.94 87.7624 24.12 85.8558 24.12H84.4358V29.2H85.8558ZM99.2016 32.06C98.8149 33.06 98.3882 33.8467 97.9216 34.42C97.4682 34.98 96.9216 35.4067 96.2816 35.7C95.6416 35.98 94.8282 36.18 93.8416 36.3L93.4816 34.46C94.3882 34.3133 95.0682 34.0867 95.5216 33.78C95.9882 33.4733 96.3749 32.9733 96.6816 32.28H95.8016L91.4616 22.18H94.2016L97.4616 30.74L100.342 22.18H103.042L99.2016 32.06ZM114.553 22.18V36H111.913V24.28H107.053V36H104.413V22.18H114.553ZM127.932 22.18V36H125.292V24.28H120.432V36H117.792V22.18H127.932ZM138.491 36L137.631 32.8H133.051L132.191 36H129.451L133.751 22.18H137.011L141.291 36H138.491ZM133.571 30.8H137.091L135.331 24.2L133.571 30.8ZM147.251 30.76V28.72H153.291V30.76H147.251ZM164.696 22.3C166.216 22.3 167.383 22.7733 168.196 23.72C169.01 24.6533 169.416 25.92 169.416 27.52C169.416 29.3467 169.143 30.8467 168.596 32.02C168.05 33.18 167.21 34.1067 166.076 34.8C164.943 35.4933 163.443 36.06 161.576 36.5L161.036 34.68C162.796 34.2133 164.13 33.6133 165.036 32.88C165.956 32.1333 166.503 31.12 166.676 29.84C165.943 30.7733 164.983 31.24 163.796 31.24C163.103 31.24 162.463 31.0667 161.876 30.72C161.303 30.36 160.85 29.8467 160.516 29.18C160.183 28.5133 160.016 27.74 160.016 26.86C160.016 25.94 160.223 25.14 160.636 24.46C161.05 23.7667 161.61 23.2333 162.316 22.86C163.036 22.4867 163.83 22.3 164.696 22.3ZM164.496 29.38C165.403 29.38 166.17 28.92 166.796 28C166.81 26.6267 166.65 25.6533 166.316 25.08C165.996 24.4933 165.456 24.2 164.696 24.2C164.03 24.2 163.51 24.4267 163.136 24.88C162.763 25.3333 162.576 25.98 162.576 26.82C162.576 27.7 162.75 28.3467 163.096 28.76C163.456 29.1733 163.923 29.38 164.496 29.38Z" fill="#ECF5FF"/>
<path fill-rule="evenodd" clip-rule="evenodd" d="M29.5937 26.9254C29.5937 26.3656 29.1324 25.8923 28.5858 25.8923H26.3125V27.9683H28.5667C29.1042 27.9683 29.5937 27.4713 29.5937 26.9254Z" fill="white"/>
<path fill-rule="evenodd" clip-rule="evenodd" d="M28.6814 32.2827H26.312V34.4596H28.6737C29.3574 34.4596 29.7655 33.9053 29.7655 33.3692C29.7655 32.8445 29.3302 32.2827 28.6814 32.2827Z" fill="white"/>
<path fill-rule="evenodd" clip-rule="evenodd" d="M0 60.3295H60V0H0V60.3295ZM17.2821 25.8924H15.8449V34.4313H17.2821V38.9716H7.60549V34.4313H9.03931V25.8924H7.60549V21.3535H17.2821V25.8924ZM31.7738 38.9716H18.5929V34.4313H20.0281V25.8924H18.5929V21.3535H30.9272C34.1358 21.3535 35.8146 23.6196 35.8146 25.8583C35.8146 28.3653 34.3969 29.4619 33.7142 29.844C35.3963 30.6399 36.3887 32.1456 36.3887 33.936C36.3887 36.9484 34.0025 38.9716 31.7738 38.9716ZM47.6022 38.9757L47.3214 38.9716H37.714V33.2131H43.4395V34.4596H45.809C46.4479 34.4596 46.8931 33.8847 46.8931 33.3692C46.8931 32.8384 46.4577 32.2695 45.809 32.2695H42.3165C39.2385 32.2695 36.8268 29.9122 36.8268 26.9032C36.8268 23.5838 39.2886 21.3535 42.9517 21.3535H51.9793V26.9789L51.862 27.0965L51.774 27.1022H46.3004V25.8924H44.0459C43.4795 25.8924 43.0193 26.3559 43.0193 26.9255C43.0193 27.4187 43.4409 27.9684 44.0459 27.9684H47.5865C50.697 27.9684 53.1343 30.3591 53.1343 33.4121C53.1343 36.4802 50.6523 38.9757 47.6022 38.9757Z" fill="white"/>
</svg>
